# xmcd
#
# Track frame offsets:
#	150
#	10490
#	23361
#	38170
#	48995
#	60716
#	72971
#	83121
#	93908
#	103768
#	121633
#	134271
#	154933
#	185224
#	201456
#	215257
#	226523
#	246646
#	256314
#	266951
#	278744
#	300067
#	309286
#	321870
#
# Disc length: 4464 seconds
#
# Revision: 1
# Processed by: cddbd v1.5.2PL0 Copyright (c) Steve Scherf et al.
# Submitted via: audiograbber 1.83.01
#
DISCID=48116e18
DTITLE=John Mayall - So Many Roads - An Anthology 19634-1974 CD1
DYEAR=2010
DGENRE=Blues
TTITLE0=Crawling Up A Hill
TTITLE1=Mr. James
TTITLE2=When I'm Gone
TTITLE3=R and B Time - Incorporating: Night Train and Lucille
TTITLE4=Runaway
TTITLE5=What's The Matter With You
TTITLE6=Crocodile Walk
TTITLE7=Blues City Shake Down
TTITLE8=I'm Your  Witchdocktor
TTITLE9=Telephone Blues
TTITLE10=On Top Of The World
TTITLE11=They Call It Stormy Monday
TTITLE12=Have You Ever Loved A Woman
TTITLE13=All Your Love
TTITLE14=Double Crossing Time
TTITLE15=Steppin' Out
TTITLE16=What'D I Say
TTITLE17=Key To Love
TTITLE18=Parchman Farm
TTITLE19=Looking Back
TTITLE20=So Many Roads
TTITLE21=Long Night
TTITLE22=Dust My Blues
TTITLE23=The Stumble
EXTD=
EXTT0=
EXTT1=
EXTT2=
EXTT3=
EXTT4=
EXTT5=
EXTT6=
EXTT7=
EXTT8=
EXTT9=
EXTT10=
EXTT11=
EXTT12=
EXTT13=
EXTT14=
EXTT15=
EXTT16=
EXTT17=
EXTT18=
EXTT19=
EXTT20=
EXTT21=
EXTT22=
EXTT23=
PLAYORDER=
